<svg width="27" height="31" viewBox="0 0 27 31" fill="none" xmlns="http://www.w3.org/2000/svg">
<g clip-path="url(#clip0_9_22)">
<path fill-rule="evenodd" clip-rule="evenodd" d="M1.49589 11.937L1.63143 21.7998C1.68134 25.4312 4.66563 28.3346 8.29703 28.2847L18.1599 28.1492C21.7912 28.0993 24.6947 25.1149 24.6448 21.4836L24.5092 11.6207C24.4593 7.98931 21.4749 5.08594 17.8436 5.13584L7.98076 5.27139C4.34935 5.3213 1.44598 8.30559 1.49589 11.937Z" stroke="#DAD6EE" stroke-width="2" stroke-linecap="round" stroke-linejoin="round"/>
<path d="M14.9895 6.81921C14.9989 7.50009 15.5585 8.04448 16.2393 8.03512C16.9202 8.02577 17.4646 7.46621 17.4552 6.78532L14.9895 6.81921ZM17.3875 1.8539C17.3781 1.17302 16.8185 0.628627 16.1377 0.637985C15.4568 0.647342 14.9124 1.2069 14.9218 1.88778L17.3875 1.8539ZM8.4143 6.90957C8.42366 7.59046 8.98324 8.13484 9.6641 8.12549C10.345 8.11613 10.8894 7.55657 10.88 6.87569L8.4143 6.90957ZM10.8122 1.94426C10.8029 1.26338 10.2433 0.718992 9.56244 0.728349C8.88158 0.737706 8.33717 1.29727 8.34653 1.97815L10.8122 1.94426ZM17.9509 12.944C18.6318 12.9346 19.1762 12.375 19.1668 11.6942C19.1575 11.0133 18.5979 10.4689 17.917 10.4782L17.9509 12.944ZM8.05418 10.6138C7.3733 10.6231 6.82891 11.1827 6.83827 11.8636C6.84762 12.5445 7.40718 13.0889 8.08807 13.0795L8.05418 10.6138ZM18.0187 17.8754C18.6996 17.866 19.244 17.3064 19.2346 16.6256C19.2252 15.9447 18.6657 15.4003 17.9848 15.4097L18.0187 17.8754ZM8.12195 15.5452C7.44107 15.5546 6.89668 16.1142 6.90604 16.795C6.9154 17.4759 7.47496 18.0203 8.15584 18.0109L8.12195 15.5452ZM13.155 22.8746C13.8359 22.8652 14.3803 22.3056 14.371 21.6248C14.3616 20.9439 13.802 20.3995 13.1212 20.4089L13.155 22.8746ZM8.18973 20.4766C7.50884 20.486 6.96445 21.0456 6.97381 21.7264C6.98317 22.4073 7.54273 22.9517 8.22361 22.9424L8.18973 20.4766ZM17.4552 6.78532L17.3875 1.8539L14.9218 1.88778L14.9895 6.81921L17.4552 6.78532ZM10.88 6.87569L10.8122 1.94426L8.34653 1.97815L8.4143 6.90957L10.88 6.87569ZM17.917 10.4782L8.05418 10.6138L8.08807 13.0795L17.9509 12.944L17.917 10.4782ZM17.9848 15.4097L8.12195 15.5452L8.15584 18.0109L18.0187 17.8754L17.9848 15.4097ZM13.1212 20.4089L8.18973 20.4766L8.22361 22.9424L13.155 22.8746L13.1212 20.4089Z" fill="#DAD6EE"/>
</g>
<defs>
<clipPath id="clip0_9_22">
<rect width="26" height="30.0384" fill="white" transform="translate(0 0.384766) rotate(-0.787374)"/>
</clipPath>
</defs>
</svg>
