<svg width="4" height="15" viewBox="0 0 4 15" fill="none" xmlns="http://www.w3.org/2000/svg">
<g clip-path="url(#clip0_221_36)">
<path d="M2 7.5H2.01M2 1.92857H2.01M2 13.0714H2.01M3 7.5C3 8.01285 2.5523 8.42857 2 8.42857C1.4477 8.42857 1 8.01285 1 7.5C1 6.98715 1.4477 6.57143 2 6.57143C2.5523 6.57143 3 6.98715 3 7.5ZM3 13.0714C3 13.5843 2.5523 14 2 14C1.4477 14 1 13.5843 1 13.0714C1 12.5586 1.4477 12.1429 2 12.1429C2.5523 12.1429 3 12.5586 3 13.0714ZM3 1.92857C3 2.4414 2.5523 2.85714 2 2.85714C1.4477 2.85714 1 2.4414 1 1.92857C1 1.41574 1.4477 1 2 1C2.5523 1 3 1.41574 3 1.92857Z" stroke="#DAD6EE" stroke-linecap="round" stroke-linejoin="round"/>
</g>
<defs>
<clipPath id="clip0_221_36">
<rect width="4" height="15" fill="white"/>
</clipPath>
</defs>
</svg>
