<svg width="26" height="27" viewBox="0 0 26 27" fill="none" xmlns="http://www.w3.org/2000/svg">
<g clip-path="url(#clip0_8_81)">
<path d="M1.75 9.625H24.25M6.75 1.875V4.45833M19.25 1.875V4.45833M5.5 13.5H8M11.75 13.5H14.25M18 13.5H20.5M5.5 17.375H8M11.75 17.375H14.25M18 17.375H20.5M5.5 21.25H8M11.75 21.25H14.25M18 21.25H20.5M5.75 25.125H20.25C21.6501 25.125 22.3503 25.125 22.885 24.8434C23.3554 24.5958 23.7379 24.2006 23.9775 23.7145C24.25 23.1619 24.25 22.4385 24.25 20.9917V8.59167C24.25 7.14486 24.25 6.42146 23.9775 5.86886C23.7379 5.38277 23.3554 4.98757 22.885 4.7399C22.3503 4.45833 21.6501 4.45833 20.25 4.45833H5.75C4.34987 4.45833 3.6498 4.45833 3.11503 4.7399C2.64461 4.98757 2.26216 5.38277 2.02249 5.86886C1.75 6.42146 1.75 7.14486 1.75 8.59167V20.9917C1.75 22.4385 1.75 23.1619 2.02249 23.7145C2.26216 24.2006 2.64461 24.5958 3.11503 24.8434C3.6498 25.125 4.34986 25.125 5.75 25.125Z" stroke="#DAD6EE" stroke-width="2" stroke-linecap="round"/>
</g>
<defs>
<clipPath id="clip0_8_81">
<rect width="26" height="27" fill="white"/>
</clipPath>
</defs>
</svg>
