<svg width="26" height="26" viewBox="0 0 26 26" fill="none" xmlns="http://www.w3.org/2000/svg">
<path d="M13.0009 18.1048L3.47886 13.002L7.37018 10.9147L5.63075 9.98256L0 13.002L13.0009 19.9671L26 13.002L20.3692 9.98256L18.6335 10.9147L22.523 13.002L13.0009 18.1048Z" fill="#DAD6EE"/>
<path d="M13.0009 24.1376L3.47886 19.0349L7.37018 16.9476L5.63075 16.0154L0 19.0349L13.0009 26L26 19.0349L20.3692 16.0154L18.6335 16.9476L22.523 19.0349L13.0009 24.1376Z" fill="#DAD6EE"/>
<path d="M13.0009 0L0 6.96508L13.0009 13.9281L26 6.96306L13.0009 0ZM13.0009 1.86235L22.523 6.96508L13.0009 12.0678L3.47886 6.96508L13.0009 1.86235Z" fill="#DAD6EE"/>
</svg>
