<svg width="35" height="35" viewBox="0 0 35 35" fill="none" xmlns="http://www.w3.org/2000/svg">
<g clip-path="url(#clip0_18_16)">
<path d="M17.5 19.6875C20.5203 19.6875 22.9688 17.2391 22.9688 14.2188C22.9688 11.1984 20.5203 8.75 17.5 8.75C14.4797 8.75 12.0312 11.1984 12.0312 14.2188C12.0312 17.2391 14.4797 19.6875 17.5 19.6875Z" fill="white"/>
<path fill-rule="evenodd" clip-rule="evenodd" d="M17.5 35C27.165 35 35 27.165 35 17.5C35 7.83501 27.165 0 17.5 0C7.83501 0 0 7.83501 0 17.5C0 27.165 7.83501 35 17.5 35ZM13.125 21.875C10.5064 21.875 8.24593 23.4089 7.19309 25.627C5.4283 23.3918 4.375 20.5689 4.375 17.5C4.375 10.2513 10.2513 4.375 17.5 4.375C24.7487 4.375 30.625 10.2513 30.625 17.5C30.625 20.5689 29.5717 23.3918 27.8068 25.627C26.754 23.4089 24.4937 21.875 21.875 21.875H13.125Z" fill="white"/>
</g>
<defs>
<clipPath id="clip0_18_16">
<rect width="35" height="35" fill="white"/>
</clipPath>
</defs>
</svg>
