<svg width="26" height="20" viewBox="0 0 26 20" fill="none" xmlns="http://www.w3.org/2000/svg">
<g clip-path="url(#clip0_8_71)">
<path d="M1.75 5.25C1.75 3.84986 1.75 3.1498 2.02249 2.61502C2.26216 2.14461 2.64461 1.76216 3.11503 1.52249C3.6498 1.25 4.34987 1.25 5.75 1.25H10.0931C10.7046 1.25 11.0104 1.25 11.2981 1.31908C11.5531 1.38031 11.797 1.48133 12.0208 1.6184C12.273 1.773 12.4892 1.98919 12.9216 2.42158L13.0784 2.57842C13.5108 3.01081 13.727 3.227 13.9792 3.3816C14.203 3.51867 14.4469 3.61969 14.7019 3.68092C14.9896 3.75 15.2954 3.75 15.9069 3.75H20.25C21.6501 3.75 22.3503 3.75 22.885 4.02249C23.3554 4.26216 23.7379 4.64461 23.9775 5.11502C24.25 5.6498 24.25 6.34987 24.25 7.75V14.75C24.25 16.1501 24.25 16.8502 23.9775 17.385C23.7379 17.8554 23.3554 18.2379 22.885 18.4775C22.3503 18.75 21.6501 18.75 20.25 18.75H5.75C4.34986 18.75 3.6498 18.75 3.11503 18.4775C2.64461 18.2379 2.26216 17.8554 2.02249 17.385C1.75 16.8502 1.75 16.1501 1.75 14.75V5.25Z" stroke="#DAD6EE" stroke-width="2" stroke-linecap="round" stroke-linejoin="round"/>
</g>
<defs>
<clipPath id="clip0_8_71">
<rect width="26" height="20" fill="white"/>
</clipPath>
</defs>
</svg>
