<svg width="30" height="34" viewBox="0 0 30 34" fill="none" xmlns="http://www.w3.org/2000/svg">
<path d="M1 6.33333H29M22 6.33333L21.5264 4.8899C21.0674 3.49111 20.8378 2.79172 20.4122 2.27463C20.0363 1.81801 19.5537 1.46457 19.0084 1.24672C18.3908 1 17.6652 1 16.2138 1H13.7862C12.3348 1 11.6092 1 10.9916 1.24672C10.4464 1.46457 9.96364 1.81801 9.58776 2.27463C9.16209 2.79172 8.93261 3.49111 8.47362 4.8899L8 6.33333M25.5 6.33333V24.4667C25.5 27.4537 25.5 28.947 24.9278 30.088C24.4245 31.0916 23.6214 31.9074 22.6335 32.4187C21.5103 33 20.0403 33 17.1 33H12.9C9.95972 33 8.48958 33 7.36655 32.4187C6.3787 31.9074 5.57555 31.0916 5.07222 30.088C4.5 28.947 4.5 27.4537 4.5 24.4667V6.33333M18.5 13.4444V25.8889M11.5 13.4444V25.8889" stroke="#DAD6EE" stroke-width="2" stroke-linecap="round" stroke-linejoin="round"/>
</svg>
