<svg width="26" height="26" viewBox="0 0 26 26" fill="none" xmlns="http://www.w3.org/2000/svg">
<g clip-path="url(#clip0_8_83)">
<path d="M1.75 9H24.25M6.75 1V3.66667M19.25 1V3.66667M5.5 13H10.5V18.3333H5.5V13ZM5.75 25H20.25C21.6501 25 22.3503 25 22.885 24.7093C23.3554 24.4537 23.7379 24.0457 23.9775 23.544C24.25 22.9736 24.25 22.2268 24.25 20.7333V7.93333C24.25 6.43985 24.25 5.69312 23.9775 5.12269C23.7379 4.62092 23.3554 4.21297 22.885 3.95732C22.3503 3.66667 21.6501 3.66667 20.25 3.66667H5.75C4.34987 3.66667 3.6498 3.66667 3.11503 3.95732C2.64461 4.21297 2.26216 4.62092 2.02249 5.12269C1.75 5.69312 1.75 6.43985 1.75 7.93333V20.7333C1.75 22.2268 1.75 22.9736 2.02249 23.544C2.26216 24.0457 2.64461 24.4537 3.11503 24.7093C3.6498 25 4.34986 25 5.75 25Z" stroke="#DAD6EE" stroke-width="2" stroke-linecap="round" stroke-linejoin="round"/>
</g>
<defs>
<clipPath id="clip0_8_83">
<rect width="26" height="26" fill="white"/>
</clipPath>
</defs>
</svg>
