<svg width="39" height="42" viewBox="0 0 39 42" fill="none" xmlns="http://www.w3.org/2000/svg">
<path d="M25.1872 9.6249L29.7833 14.5746M4.875 36.7495L4.95211 36.1681C5.22496 34.1113 5.36139 33.0829 5.67172 32.1226C5.94709 31.2706 6.32326 30.4603 6.79097 29.712C7.31804 28.8685 8.00018 28.1339 9.36445 26.6647L28.2924 6.28068C29.5617 4.91384 31.6194 4.91384 32.8887 6.28068C34.1578 7.64752 34.1578 9.8636 32.8887 11.2304L13.6133 31.9884C12.3757 33.3214 11.7568 33.9878 11.0519 34.5177C10.4263 34.9881 9.75151 35.3778 9.04147 35.6788C8.24153 36.018 7.38359 36.2043 5.66789 36.5771L4.875 36.7495Z" stroke="#DAD6EE" stroke-width="2" stroke-linecap="round" stroke-linejoin="round"/>
</svg>
