<svg width="30" height="30" viewBox="0 0 30 30" fill="none" xmlns="http://www.w3.org/2000/svg">
<path d="M15.0011 20.8901L4.01407 15.0023L8.50406 12.5939L6.49702 11.5183L0 15.0023L15.0011 23.039L30 15.0023L23.503 11.5183L21.5002 12.5939L25.9881 15.0023L15.0011 20.8901Z" fill="#DAD6EE"/>
<path d="M15.0011 27.8511L4.01407 21.9634L8.50406 19.5549L6.49702 18.4793L0 21.9634L15.0011 30L30 21.9634L23.503 18.4793L21.5002 19.5549L25.9881 21.9634L15.0011 27.8511Z" fill="#DAD6EE"/>
<path d="M15.0011 0L0 8.03663L15.0011 16.0709L30 8.0343L15.0011 0ZM15.0011 2.14887L25.9881 8.03663L15.0011 13.9244L4.01407 8.03663L15.0011 2.14887Z" fill="#DAD6EE"/>
</svg>
