<svg width="30" height="31" viewBox="0 0 30 31" fill="none" xmlns="http://www.w3.org/2000/svg">
<path d="M3.75 11.625H26.25M8.75 3.875V6.45833M21.25 3.875V6.45833M7.5 15.5H10M13.75 15.5H16.25M20 15.5H22.5M7.5 19.375H10M13.75 19.375H16.25M20 19.375H22.5M7.5 23.25H10M13.75 23.25H16.25M20 23.25H22.5M7.75 27.125H22.25C23.6501 27.125 24.3503 27.125 24.885 26.8434C25.3554 26.5958 25.7379 26.2006 25.9775 25.7145C26.25 25.1619 26.25 24.4385 26.25 22.9917V10.5917C26.25 9.14486 26.25 8.42146 25.9775 7.86886C25.7379 7.38277 25.3554 6.98757 24.885 6.7399C24.3503 6.45833 23.6501 6.45833 22.25 6.45833H7.75C6.34987 6.45833 5.6498 6.45833 5.11503 6.7399C4.64461 6.98757 4.26216 7.38277 4.02249 7.86886C3.75 8.42146 3.75 9.14486 3.75 10.5917V22.9917C3.75 24.4385 3.75 25.1619 4.02249 25.7145C4.26216 26.2006 4.64461 26.5958 5.11503 26.8434C5.6498 27.125 6.34986 27.125 7.75 27.125Z" stroke="#DAD6EE" stroke-width="2" stroke-linecap="round"/>
</svg>
