<svg width="41" height="41" viewBox="0 0 41 41" fill="none" xmlns="http://www.w3.org/2000/svg">
<path fill-rule="evenodd" clip-rule="evenodd" d="M9.06267 17.2894L9.19507 26.9232C9.24381 30.4702 12.1588 33.3062 15.7059 33.2575L25.3396 33.1251C28.8866 33.0763 31.7227 30.1613 31.6739 26.6143L31.5415 16.9805C31.4928 13.4334 28.5777 10.5975 25.0307 10.6462L15.3969 10.7786C11.8499 10.8274 9.01392 13.7423 9.06267 17.2894Z" stroke="#DAD6EE" stroke-width="2" stroke-linecap="round" stroke-linejoin="round"/>
<path d="M22.2429 12.2905C22.2521 12.9556 22.7986 13.4873 23.4637 13.4782C24.1288 13.469 24.6605 12.9225 24.6514 12.2574L22.2429 12.2905ZM24.5852 7.44049C24.576 6.77542 24.0295 6.24368 23.3644 6.25282C22.6994 6.26196 22.1676 6.80852 22.1767 7.47359L24.5852 7.44049ZM15.8204 12.3788C15.8295 13.0438 16.3761 13.5756 17.0412 13.5664C17.7062 13.5573 18.238 13.0107 18.2289 12.3457L15.8204 12.3788ZM18.1627 7.52876C18.1535 6.86369 17.6069 6.33194 16.9419 6.34108C16.2768 6.35022 15.7451 6.89679 15.7542 7.56186L18.1627 7.52876ZM25.1355 18.273C25.8006 18.2638 26.3323 17.7173 26.3232 17.0522C26.3141 16.3871 25.7675 15.8554 25.1024 15.8645L25.1355 18.273ZM15.4686 15.9969C14.8036 16.0061 14.2718 16.5526 14.281 17.2177C14.2901 17.8828 14.8367 18.4145 15.5017 18.4054L15.4686 15.9969ZM25.2017 23.0899C25.8668 23.0807 26.3985 22.5342 26.3894 21.8691C26.3803 21.2041 25.8337 20.6723 25.1686 20.6814L25.2017 23.0899ZM15.5348 20.8138C14.8698 20.823 14.338 21.3696 14.3472 22.0346C14.3563 22.6997 14.9029 23.2314 15.5679 23.2223L15.5348 20.8138ZM20.451 27.973C21.1161 27.9638 21.6479 27.4173 21.6387 26.7522C21.6296 26.0871 21.083 25.5554 20.4179 25.5645L20.451 27.973ZM15.601 25.6307C14.936 25.6399 14.4042 26.1864 14.4134 26.8515C14.4225 27.5166 14.9691 28.0483 15.6341 28.0392L15.601 25.6307ZM24.6514 12.2574L24.5852 7.44049L22.1767 7.47359L22.2429 12.2905L24.6514 12.2574ZM18.2289 12.3457L18.1627 7.52876L15.7542 7.56186L15.8204 12.3788L18.2289 12.3457ZM25.1024 15.8645L15.4686 15.9969L15.5017 18.4054L25.1355 18.273L25.1024 15.8645ZM25.1686 20.6814L15.5348 20.8138L15.5679 23.2223L25.2017 23.0899L25.1686 20.6814ZM20.4179 25.5645L15.601 25.6307L15.6341 28.0392L20.451 27.973L20.4179 25.5645Z" fill="#DAD6EE"/>
</svg>
