<svg width="30" height="32" viewBox="0 0 30 32" fill="none" xmlns="http://www.w3.org/2000/svg">
<path d="M3.75 12H26.25M8.75 4V6.66667M21.25 4V6.66667M7.5 16H12.5V21.3333H7.5V16ZM7.75 28H22.25C23.6501 28 24.3503 28 24.885 27.7093C25.3554 27.4537 25.7379 27.0457 25.9775 26.544C26.25 25.9736 26.25 25.2268 26.25 23.7333V10.9333C26.25 9.43985 26.25 8.69312 25.9775 8.12269C25.7379 7.62092 25.3554 7.21297 24.885 6.95732C24.3503 6.66667 23.6501 6.66667 22.25 6.66667H7.75C6.34987 6.66667 5.6498 6.66667 5.11503 6.95732C4.64461 7.21297 4.26216 7.62092 4.02249 8.12269C3.75 8.69312 3.75 9.43985 3.75 10.9333V23.7333C3.75 25.2268 3.75 25.9736 4.02249 26.544C4.26216 27.0457 4.64461 27.4537 5.11503 27.7093C5.6498 28 6.34986 28 7.75 28Z" stroke="#DAD6EE" stroke-width="2" stroke-linecap="round" stroke-linejoin="round"/>
</svg>
